<svg xmlns="http://www.w3.org/2000/svg" viewBox="0 0 64 64" fill="none">
  <rect width="64" height="64" rx="16" fill="#155E75" />
  <path d="M18 25C18 20.0294 22.0294 16 27 16H40C43.3137 16 46 18.6863 46 22V22C46 25.3137 43.3137 28 40 28H26C23.7909 28 22 29.7909 22 32V32C22 34.2091 23.7909 36 26 36H46V39C46 43.9706 41.9706 48 37 48H24C20.6863 48 18 45.3137 18 42V42C18 38.6863 20.6863 36 24 36H38C40.2091 36 42 34.2091 42 32V32C42 29.7909 40.2091 28 38 28H18V25Z" fill="#F6EBD9" />
  <circle cx="46" cy="18" r="4" fill="#B45309" />
</svg>
